<svg xmlns="http://www.w3.org/2000/svg" viewBox="0 0 149.5 49.5"><defs><style>.cls-1{fill:#fff;}</style></defs><g id="Capa_2" data-name="Capa 2"><g id="Capa_1-2" data-name="Capa 1"><path class="cls-1" d="M146.1,0H3.4A3.4,3.4,0,0,0,0,3.4V46.1a3.4,3.4,0,0,0,3.4,3.4H146.1a3.4,3.4,0,0,0,3.4-3.4V3.4A3.4,3.4,0,0,0,146.1,0Zm.9,47H2.5V2.5H147Z"/><polygon class="cls-1" points="76.08 23.42 76.08 13.75 73.42 13.75 73.42 23.42 63.75 23.42 63.75 26.08 73.42 26.08 73.42 35.75 76.08 35.75 76.08 26.08 85.75 26.08 85.75 23.42 76.08 23.42"/></g></g></svg>