<svg xmlns="http://www.w3.org/2000/svg" viewBox="0 0 23.55 23.56"><defs><style>.cls-1{fill:#fff;}</style></defs><g id="Capa_2" data-name="Capa 2"><g id="Capa_1-2" data-name="Capa 1"><path class="cls-1" d="M5,16.14a.24.24,0,0,0-.23-.06.23.23,0,0,0-.17.15L3.45,19.81a.23.23,0,0,0,0,.24.21.21,0,0,0,.17.08h.06l3.72-1a.26.26,0,0,0,.17-.17.24.24,0,0,0-.06-.23Z"/><path class="cls-1" d="M20.05,5.89,17.63,3.5a.24.24,0,0,0-.35,0L5.6,15.24a.26.26,0,0,0,0,.35L8,18a.33.33,0,0,0,.18.08A.29.29,0,0,0,8.33,18L19.87,6.42l.18-.18a.24.24,0,0,0,.07-.18A.26.26,0,0,0,20.05,5.89Z"/><path class="cls-1" d="M23.55,23.56H0V0H23.55ZM1.81,21.74H21.74V1.81H1.81Z"/></g></g></svg>